<svg width="32" height="27" viewBox="0 0 32 27" fill="none" xmlns="http://www.w3.org/2000/svg">
<path d="M1.34737 5.50395e-05C0.606316 5.50395e-05 0 0.607554 0 1.35005C0 2.09255 0.606316 2.70005 1.34737 2.70005H4.33718L7.87402 16.875C8.17314 18.0765 9.24834 18.9 10.4839 18.9H25.9368C27.1522 18.9 28.1843 18.0927 28.5049 16.9169L32 4.05005H9.43158L10.1053 6.75004H28.5049L25.9368 16.2H10.4839L6.94703 2.02505C6.80131 1.44362 6.46503 0.928021 5.99207 0.560857C5.5191 0.193692 4.93683 -0.00378773 4.33853 5.50395e-05H1.34737ZM24.2526 18.9C22.0362 18.9 20.2105 20.7293 20.2105 22.95C20.2105 25.1708 22.0362 27 24.2526 27C26.4691 27 28.2947 25.1708 28.2947 22.95C28.2947 20.7293 26.4691 18.9 24.2526 18.9ZM12.1263 18.9C9.90989 18.9 8.08421 20.7293 8.08421 22.95C8.08421 25.1708 9.90989 27 12.1263 27C14.3427 27 16.1684 25.1708 16.1684 22.95C16.1684 20.7293 14.3427 18.9 12.1263 18.9ZM12.1263 21.6C12.8849 21.6 13.4737 22.1913 13.4737 22.95C13.4737 23.7101 12.8835 24.3 12.1263 24.3C11.3677 24.3 10.7789 23.7087 10.7789 22.95C10.7789 22.19 11.3691 21.6 12.1263 21.6ZM24.2526 21.6C25.0112 21.6 25.6 22.1913 25.6 22.95C25.6 23.7101 25.0099 24.3 24.2526 24.3C23.4941 24.3 22.9053 23.7087 22.9053 22.95C22.9053 22.19 23.4954 21.6 24.2526 21.6Z" fill="#1C1C1C"/>
</svg>
