<svg width="80" height="88" viewBox="0 0 80 88" fill="none" xmlns="http://www.w3.org/2000/svg">
<path fill-rule="evenodd" clip-rule="evenodd" d="M44.7822 79.717C64.6191 77.3538 80 60.4731 80 40C80 17.9086 62.0914 0 40 0C17.9086 0 0 17.9086 0 40C0 60.4731 15.3809 77.3538 35.2178 79.717L40 88L44.7822 79.717Z" fill="#102A83"/>
<path fill-rule="evenodd" clip-rule="evenodd" d="M40.935 59.7167C40.663 59.9 40.323 60 40 60C39.677 60 39.337 59.9 39.065 59.7167C38.402 59.3 23 49.0834 23 36.6666C23 27.4833 30.633 20 40 20C49.367 20 57 27.4833 57 36.6666C57 49.0834 41.598 59.3 40.935 59.7167ZM53.6 36.6666C53.6 29.3167 47.497 23.3334 40 23.3334C32.503 23.3334 26.4 29.3167 26.4 36.6666C26.4 45.6833 36.77 53.9333 40 56.2833C43.23 53.9333 53.6 45.6833 53.6 36.6666ZM46.7998 36.6666C46.7998 40.35 43.7568 43.3334 39.9998 43.3334C36.2428 43.3334 33.1998 40.35 33.1998 36.6666C33.1998 32.9833 36.2428 30 39.9998 30C43.7568 30 46.7998 32.9833 46.7998 36.6666ZM43.3998 36.6666C43.3998 34.8334 41.8698 33.3334 39.9998 33.3334C38.1298 33.3334 36.5998 34.8334 36.5998 36.6666C36.5998 38.5 38.1298 40 39.9998 40C41.8698 40 43.3998 38.5 43.3998 36.6666Z" fill="white"/>
</svg>
